<svg viewBox="0 0 985 985" width="985" height="985" xmlns="http://www.w3.org/2000/svg">

  <g id="svg_1" fill="#fff">
   <path id="svg_2" d="m983.3333,379.03319c-18,38.3 -40.8,71.8 -58.4,110.3c-18,-5.8 -24.3,-23.3 -45.5,-25.9l0,441.4l-775.6,0l0,-438.1c-15.9,-6.2 -27.4,20.1 -45.4,22.7c-14.8,-39.2 -39,-69.1 -55.1,-107.1c50.5,-45.6 113.2,-79.3 165.5,-123.2l0,-159l152.6,0l0,48.7c54.5,-29 113.2,-81.7 171.9,-117c163.7,115.4 325.4,232.8 490,347.2zm-743.1,-3.2c-26,18.7 -71.9,42.4 -77.9,61.6c-7.6,24.4 0,69.2 0,100.7l0,308.3l658.8,0l0,-415.4c-109.2,-79.1 -219.2,-157.2 -331,-233.7c-77.5,55.7 -166.1,118 -249.9,178.5z"/>
   <path id="svg_3" d="m470.5333,353.13319c129.7,-10.9 253.7,91.3 233.6,249.8c-10.3,81.4 -70,143.5 -133,168.8c-229.6,92.2 -395.5,-205.9 -236.8,-360.2c32.8,-32 82.1,-53.9 136.2,-58.4zm-9.7,84.3c-41.8,20.2 -63.4,48.6 -58.4,90.9c8.3,69.7 114,54.7 116.9,94.1c2.9,41.3 -67.3,41.5 -71.4,0l-45.5,0c1.6,44.9 27.9,65 58.4,81.1c0.4,9.3 -1.7,21.2 3.3,25.9l45.4,0l0,-29.1c62.1,-16.4 73.7,-94.3 38.9,-129.8c-24.9,-25.6 -88.3,-19 -94.1,-48.6c-5.9,-30.6 20.8,-39.6 45.5,-35.8c11.3,6.1 12.4,22.2 22.6,29.3l45.5,0c-1.6,-45 -31,-62.1 -58.4,-81.3l0,-25.9l-48.8,0c0.1,9.8 0.1,19.5 0.1,29.2z"/>
  </g>
</svg>
